Patient4_TMGait_0pt4_02_right_12_EMG.mot
version=1
nRows=23
nColumns=33
inDegrees=no
endheader
time	1LAddLong	2LGlutMax	3LGlutMed	4LIliopsoas	5LSemiMemb	6LBicFemLong	7LRecFem	8LVastMed	9LVastLat	10LGasMed	11LTibAnt	12lTibPost	13LPeroneusLong	14LSol	15LExtDigLong	16LFlexDigLong	17RAddLong	18RGlutMax	19RGlutMed	20RIliopsoas	21RSemiMemb	22RBicFemLong	23RRecFem	24RVastMed	25RVastLat	26RGasMed	27RTibAnt	28RTibPost	29RPeroneusLong	30RSol	31RExtDigLong	32RFlexDigLong
15.835	0.016022	-0.16693	0.071106	0.016022	-0.008545	-0.039368	-0.1294	0.008545	0.052948	0.016327	0.13107	-0.000153	-0.02243	0.028839	0.44739	0.003662	0.011749	-0.50812	-0.73959	0.036621	-0.27145	-0.45639	0.28595	0.10346	-0.088654	-0.22369	0.008392	0.096436	-0.44556	0.077667	-0.003662	0.000153
15.836	0.010071	-0.16556	0.08194	-0.000153	-0.010376	-0.022278	-0.16464	0.006409	0.055084	0.015564	-0.18219	0.002899	-0.011749	0.11261	0.56992	-0.008087	0.039825	-0.69382	-0.38116	0.014191	-0.096741	-0.42755	0.30685	0.11215	-0.090485	-0.074921	-0.015717	0.023346	-1.7006	-0.16037	-0.001373	-0.005493
15.837	0.009918	-0.14221	0.093079	-0.00351	-0.012207	-0.032349	-0.11841	0.01236	0.069275	-0.009766	-0.34042	-0.007477	0.049744	0.13321	0.45395	-0.00061	0.011292	-0.99609	-0.052338	0.006866	-0.32471	-0.23926	0.27023	0.053253	-0.11871	0.11841	-0.12695	-0.009308	-0.85297	-0.26489	0.002441	-0.006104
15.838	0.006561	-0.14465	0.092316	0.010376	-0.008087	-0.005035	-0.071106	0.003204	0.07431	-0.030823	-0.3537	0.00885	0.1149	0.095978	-0.44846	0.002136	-0.009155	-1.2611	-0.70847	0.058594	-0.47653	-0.20981	0.33646	-0.087738	-0.1178	0.11841	-0.12039	0.045319	2.1619	-0.12909	-0.009155	-0.007019
15.839	0.01236	-0.15564	0.098267	0.027924	-0.014343	-0.025024	-0.043793	0.005188	0.077362	-0.009918	-0.29556	-0.007172	0.10651	0.0177	-0.69107	0.002289	-0.018158	-1.3281	-0.61035	0.027161	-0.23987	-0.17654	0.37537	-0.088043	-0.11963	0.011292	-0.049438	-0.010376	3.0789	-0.36224	-0.005493	-0.02182
15.84	0.007477	-0.1326	0.096283	0.030212	-0.013275	-0.031128	-0.032654	0.004578	0.093079	0.001221	-0.18906	0.003815	0.051575	-0.059204	-0.33905	-0.015106	-0.008698	-1.4557	0.39429	-0.016632	-0.27268	-0.033417	0.39414	0.008698	-0.090637	0.003357	0.012817	0.007782	1.228	-0.40131	-0.006409	-0.023651
15.841	0.002899	-0.1091	0.056763	0.026855	-0.018158	-0.018158	-0.015259	0.004578	0.10696	0.008698	-0.064087	-0.001373	0.023499	-0.032043	0.44022	-0.009918	-0.04837	-1.6014	-0.61203	0.071564	-0.14572	0.030823	0.36057	0.078278	-0.06546	-0.010681	0.005188	0.000763	0.91248	-0.002289	-0.004272	-0.012207
15.842	0.001221	-0.097656	0.075226	0.005951	-0.014343	-0.019684	0.011139	0.003052	0.10925	0.005341	0.02594	0.001068	0.038452	0.00412	0.23865	-0.019379	-0.07309	-1.6637	-1.0884	-0.027161	-0.02182	-0.093079	0.41306	0.067139	-0.071106	-0.049438	-0.12222	-0.1709	0.075836	0.17761	-0.002747	-0.00824
15.843	-0.002594	-0.10132	0.09552	0.006256	-0.01358	-0.035706	0.15701	0.004578	0.10132	0.005341	0.035858	0.016785	0.030975	-0.016022	0.77835	-0.003967	-0.045624	-1.5871	-0.96909	-0.070801	-0.042572	-0.18799	0.48889	0.051117	-0.092163	-0.090332	-0.075226	-0.07782	-0.19073	-0.08194	-0.002136	-0.003357
15.844	-0.001526	-0.043793	0.090942	0.02655	-0.042877	-0.028381	0.19486	0.005646	0.087738	-0.042114	0.12177	0.001984	0.043945	0.072021	0.17822	0.020447	-0.016174	-1.636	-1.0808	-0.15717	0.13428	-0.14282	0.54138	0.066223	-0.095062	-0.068817	-0.021667	0.1889	-0.13519	-0.057983	-0.007324	0.007019
15.845	0.001678	-0.067139	0.1091	0.018158	-0.007324	-0.022888	0.14374	0.005188	0.074463	-0.11963	0.008087	0.006409	0.10971	0.2652	-0.31525	0.026398	0.013428	-1.6158	-0.65887	-0.06897	0.093689	-0.064087	0.55832	-0.014191	-0.10376	-0.020752	0.015717	0.091553	-0.27679	0.07019	-0.006104	0.004272
15.846	-0.006256	-0.076904	0.089417	0.005798	-0.006409	-0.005951	0.14465	0.011292	0.077362	-0.074463	-0.23102	0.003357	-0.017548	0.29648	0.1712	0.013733	0.031433	-1.6133	-0.52902	0.12726	-0.16739	-0.061646	0.54169	-0.13886	-0.093384	-0.04425	0.004272	0.00412	-0.25894	0.23468	-0.00412	-0.000916
15.847	-0.007782	-0.077667	0.088654	0.029907	-0.023193	0.002747	0.18845	0.01358	0.073547	-0.019379	0.02594	0.003815	-0.12192	0.29343	0.076141	0.003204	0.063324	-1.7146	-0.82092	0.22125	-0.032196	-0.12238	0.55801	-0.25879	-0.12375	0.006866	0.018463	0.011139	-0.12528	0.28748	-0.004272	-0.002594
15.848	-0.006409	-0.071869	0.10193	0.061798	-0.006409	-0.014343	0.1828	0.015869	0.078125	0.004578	0.039978	-0.001068	-0.10437	0.23621	-0.33508	-0.004272	0.077515	-1.6728	-0.34409	0.13428	0.21774	-0.13046	0.48843	-0.24658	-0.16403	0.054779	0.020905	0.034027	-0.42053	-0.095062	-0.002899	-0.005035
15.849	-0.007935	-0.052032	0.11246	0.071411	-0.006256	-0.029755	0.12573	0.021057	0.088196	0.005646	0.029449	0.007019	-0.050354	0.1416	-0.40649	-0.014343	0.032349	-1.6753	-0.2121	0.088196	0.26642	0.012512	0.24551	-0.21515	-0.16663	0.009613	-0.03067	0.008698	0.28015	-0.39322	-0.004272	-0.001221
15.85	-0.003662	-0.047607	0.10635	0.04837	-0.010071	-0.019226	-0.011597	0.018921	0.099792	-0.033112	0.23651	0.023651	0.024567	0.062408	-0.64774	-0.012817	0.017395	-1.8228	-0.20325	-0.056915	-0.44052	-0.090637	0.019073	-0.12405	-0.11063	-0.10407	-0.029755	0.036316	0.25742	-0.73959	-0.003357	-0.012817
15.851	-0.001984	-0.01709	0.11337	-0.021362	-0.002594	-0.027313	-0.18066	0.016327	0.10956	-0.054321	0.14328	0.002441	0.055847	0.10361	-0.29587	-0.018463	-0.055237	-1.9768	-0.076904	-0.10864	-0.65353	0.048676	-0.012054	0.03067	0.005341	0.033112	0.007782	0.036316	0.079651	-0.26108	-0.006561	-0.007019
15.852	-0.004272	0.006409	0.10376	-0.053711	-0.014954	-0.015564	-0.23514	0.016327	0.11917	-0.057831	-0.20325	0.017548	0.11963	0.024719	0.092926	-0.007782	-0.079041	-1.9476	-0.56122	-0.058136	0.037384	0.22492	0.29526	0.11307	-0.03952	0.066528	0.038147	0.013123	0.08316	0.44067	-0.003052	-0.007629
15.853	-0.003204	0.03418	0.074005	-0.014496	-0.021667	-0.014496	-0.2681	0.008545	0.12558	-0.054932	-0.26672	0.017853	0.1532	-0.11276	0.016632	-0.00473	-0.08255	-1.9011	-0.85678	0.005035	0.46295	0.11795	0.36835	0.16922	-0.04776	0.009308	0.007324	-0.008698	0.024872	0.37689	-0.006561	-0.016022
15.854	0.006104	0.011597	0.061951	-0.021362	-0.013885	-0.024872	-0.23132	-0.002594	0.15472	-0.026398	-0.12009	0.000916	0.084381	-0.2945	-0.33966	0.000153	-0.081635	-1.9391	-0.92087	0.004272	0.26123	0.17593	0.21729	0.28229	0.010986	0.035706	-0.001984	-0.02533	0.018616	0.4155	-0.002136	-0.016022
15.855	0.000153	-0.024872	0.056	0.000153	-0.00885	-0.029144	-0.19867	-0.007324	0.14557	0.002136	0.055542	-0.006714	0.030975	-0.26367	-0.30685	0.002136	-0.023346	-2.0424	-0.78079	0.054626	-0.039673	0.25238	0.11856	0.05661	0.00885	0.046997	-0.013428	-0.02182	0.069427	0.56534	-0.001984	-0.013733
15.856	-0.000763	-0.023499	0.062408	-0.010986	-0.010986	-0.014191	-0.14038	-0.005341	0.16083	0.010071	0.11429	0.010376	0.010223	-0.15701	0.028839	-0.006409	0.068512	-2.1051	-0.70129	0.093994	-0.075378	0.20096	0.22995	-0.094147	0.093079	0.045166	0.008698	-0.02594	0.17014	0.11398	-0.005798	-0.010223
15.857	0.002899	-0.020447	0.07431	-0.013275	-0.018158	-0.023956	-0.088501	0.003204	0.16022	-0.003967	0.19745	0.012817	-0.000916	-0.090485	0.31403	-0.016479	0.053558	-2.1478	-0.33005	0.06897	-0.28122	0.22247	0.30655	-0.16403	0.075073	0.03067	0.017395	-0.042114	0.17975	-0.10742	-0.002441	-0.009003
